<svg width="420" height="65" viewBox="0 0 420 65" fill="none" xmlns="http://www.w3.org/2000/svg">
<path fill-rule="evenodd" clip-rule="evenodd" d="M39 5V18H23C19.6863 18 17 20.6863 17 24C17 27.3137 19.6863 30 23 30H18C14.134 30 11 33.134 11 37C11 40.866 14.134 44 18 44H13C8.58172 44 5 47.5817 5 52C5 56.4183 8.58172 60 13 60H55C59.4183 60 63 56.4183 63 52C63 47.5817 59.4183 44 55 44H50C53.866 44 57 40.866 57 37C57 33.134 53.866 30 50 30H39C45.6274 30 51 24.6274 51 18V17C51 10.3726 45.6274 5 39 5Z" fill="#F7F0DF"/>
<path fill-rule="evenodd" clip-rule="evenodd" d="M17.0888 25.0341C17.0304 24.6981 17 24.3526 17 24C17 20.6863 19.6863 18 23 18H39V5C40.7844 5 42.4779 5.38949 44 6.08808C48.1311 7.9841 51 12.157 51 17V18C51 20.6124 50.1652 23.0298 48.7479 25C46.5695 28.0281 43.015 30 39 30H50C50.3306 30 50.6558 30.0229 50.9742 30.0672C54.3791 30.5413 57 33.4646 57 37C57 37.7343 56.8869 38.4422 56.6773 39.1072C56.3423 40.1696 55.7609 41.1225 55 41.899C53.7295 43.1955 51.9587 44 50 44H55C56.4249 44 57.7628 44.3725 58.9216 45.0255C61.356 46.3972 63 49.0066 63 52C63 56.4183 59.4183 60 55 60H13C8.58172 60 5 56.4183 5 52C5 49.0066 6.64404 46.3972 9.07844 45.0255C10.2372 44.3725 11.5751 44 13 44H18C16.0413 44 14.2705 43.1955 13 41.899C12.2391 41.1225 11.6577 40.1696 11.3227 39.1072C11.1131 38.4422 11 37.7343 11 37C11 34.4196 12.3962 32.1653 14.4744 30.9514C15.5098 30.3466 16.7144 30 18 30H23C20.913 30 19.0749 28.9345 18 27.3178C17.5498 26.6407 17.2334 25.8668 17.0888 25.0341ZM12.2742 26.4515C12.0948 25.6632 12 24.8427 12 24C12 17.9249 16.9249 13 23 13H34V0H39C48.3888 0 56 7.61116 56 17V18C56 20.7853 55.3301 23.4142 54.1428 25.7343C58.7288 27.4213 62 31.8286 62 37C62 38.2888 61.7968 39.5301 61.4208 40.6937C65.3501 42.93 68 47.1555 68 52C68 59.1797 62.1797 65 55 65H13C5.8203 65 0 59.1797 0 52C0 47.1555 2.64987 42.93 6.57922 40.6937C6.20317 39.5301 6 38.2888 6 37C6 32.446 8.53672 28.4846 12.2742 26.4515Z" fill="#44464A"/>
<mask id="mask0" mask-type="alpha" maskUnits="userSpaceOnUse" x="5" y="5" width="58" height="55">
<path fill-rule="evenodd" clip-rule="evenodd" d="M39 5V18H23C19.6863 18 17 20.6863 17 24C17 27.3137 19.6863 30 23 30H18C14.134 30 11 33.134 11 37C11 40.866 14.134 44 18 44H13C8.58172 44 5 47.5817 5 52C5 56.4183 8.58172 60 13 60H55C59.4183 60 63 56.4183 63 52C63 47.5817 59.4183 44 55 44H50C53.866 44 57 40.866 57 37C57 33.134 53.866 30 50 30H39C45.6274 30 51 24.6274 51 18V17C51 10.3726 45.6274 5 39 5Z" fill="#F7F0DF"/>
</mask>
<g mask="url(#mask0)">
<rect x="5" y="44" width="37" height="16" fill="#F8A65D"/>
<rect x="37" y="7" width="15" height="11" fill="#777D89"/>
<rect x="37" y="2" width="15" height="10" fill="#FF5139"/>
<rect x="42" y="44" width="5" height="16" fill="#E5D98D"/>
</g>
<mask id="mask1" mask-type="alpha" maskUnits="userSpaceOnUse" x="5" y="5" width="58" height="55">
<path fill-rule="evenodd" clip-rule="evenodd" d="M39 5V18H23C19.6863 18 17 20.6863 17 24C17 27.3137 19.6863 30 23 30H18C14.134 30 11 33.134 11 37C11 40.866 14.134 44 18 44H13C8.58172 44 5 47.5817 5 52C5 56.4183 8.58172 60 13 60H55C59.4183 60 63 56.4183 63 52C63 47.5817 59.4183 44 55 44H50C53.866 44 57 40.866 57 37C57 33.134 53.866 30 50 30H39C45.6274 30 51 24.6274 51 18V17C51 10.3726 45.6274 5 39 5Z" fill="#F7F0DF"/>
</mask>
<g mask="url(#mask1)">
<rect opacity="0.1" x="5" y="52" width="58" height="8" fill="#44464A"/>
<rect opacity="0.1" x="5" y="37" width="58" height="7" fill="#44464A"/>
<rect opacity="0.1" x="5" y="24" width="58" height="6" fill="#44464A"/>
</g>
<path d="M97.5949 52C94.9835 52 92.4488 51.6759 89.991 51.0278C87.5331 50.3796 85.5361 49.5154 84 48.4352L86.9955 41.6759C88.4395 42.6327 90.1139 43.4043 92.0187 43.9907C93.9235 44.5772 95.7976 44.8704 97.641 44.8704C101.143 44.8704 102.895 43.9907 102.895 42.2315C102.895 41.3056 102.388 40.6265 101.374 40.1944C100.391 39.7315 98.7931 39.2531 96.581 38.7593C94.1539 38.2346 92.1262 37.679 90.4979 37.0926C88.8696 36.4753 87.4717 35.5031 86.3042 34.1759C85.1367 32.8488 84.553 31.0586 84.553 28.8056C84.553 26.8302 85.0907 25.0556 86.166 23.4815C87.2413 21.8765 88.8389 20.6111 90.9587 19.6852C93.1094 18.7593 95.7362 18.2963 98.8392 18.2963C100.959 18.2963 103.048 18.5432 105.107 19.037C107.165 19.5 108.978 20.1944 110.545 21.1204L107.733 27.9259C104.661 26.2593 101.681 25.4259 98.7931 25.4259C96.9804 25.4259 95.6594 25.7037 94.8298 26.2593C94.0003 26.7839 93.5856 27.4784 93.5856 28.3426C93.5856 29.2068 94.0771 29.8549 95.0603 30.287C96.0434 30.7191 97.6256 31.1667 99.807 31.6296C102.265 32.1543 104.293 32.7253 105.89 33.3426C107.518 33.929 108.916 34.8858 110.084 36.213C111.282 37.5093 111.881 39.2839 111.881 41.537C111.881 43.4815 111.343 45.2407 110.268 46.8148C109.193 48.3889 107.58 49.6543 105.429 50.6111C103.279 51.537 100.667 52 97.5949 52Z" fill="#F8A65D"/>
<path d="M130.797 25.8426C133.9 25.8426 136.389 26.7685 138.263 28.6204C140.167 30.4722 141.12 33.2654 141.12 37V51.3518H132.364V38.4352C132.364 35.0093 130.997 33.2963 128.262 33.2963C126.757 33.2963 125.543 33.7901 124.622 34.7778C123.731 35.7654 123.285 37.2469 123.285 39.2222V51.3518H114.529V17H123.285V28.5741C124.238 27.679 125.359 27 126.649 26.537C127.94 26.0741 129.322 25.8426 130.797 25.8426Z" fill="#F8A65D"/>
<path d="M157.334 26.4444L162.034 28.9907L159.361 33.4352L154.522 30.5185L154.661 35.8426H149.407L149.545 30.5185L144.706 33.4352L142.08 28.9907L146.78 26.4444L142.08 23.8519L144.706 19.4074L149.545 22.3704L149.407 17H154.661L154.522 22.3704L159.361 19.4074L162.034 23.8519L157.334 26.4444Z" fill="#F8A65D"/>
<path d="M177.964 26.4444L182.664 28.9907L179.991 33.4352L175.152 30.5185L175.291 35.8426H170.037L170.175 30.5185L165.336 33.4352L162.71 28.9907L167.41 26.4444L162.71 23.8519L165.336 19.4074L170.175 22.3704L170.037 17H175.291L175.152 22.3704L179.991 19.4074L182.664 23.8519L177.964 26.4444Z" fill="#F8A65D"/>
<path d="M203.421 50.3333C202.683 50.7963 201.777 51.1512 200.702 51.3981C199.657 51.6451 198.536 51.7685 197.337 51.7685C194.081 51.7685 191.577 50.966 189.826 49.3611C188.074 47.7562 187.199 45.3642 187.199 42.1852V33.7593H183.558V27.1852H187.199V20.6574H195.955V27.1852H201.669V33.7593H195.955V42.0926C195.955 42.9877 196.185 43.6975 196.646 44.2222C197.138 44.716 197.783 44.963 198.582 44.963C199.596 44.963 200.487 44.7006 201.255 44.1759L203.421 50.3333Z" fill="#F8A65D"/>
<path d="M204.585 18.9444H215L213.249 39.5463H206.29L204.585 18.9444ZM209.792 51.7685C208.256 51.7685 206.997 51.3056 206.014 50.3796C205.03 49.4228 204.539 48.2654 204.539 46.9074C204.539 45.5185 205.03 44.3765 206.014 43.4815C206.997 42.5864 208.256 42.1389 209.792 42.1389C211.329 42.1389 212.573 42.5864 213.525 43.4815C214.508 44.3765 215 45.5185 215 46.9074C215 48.2654 214.508 49.4228 213.525 50.3796C212.542 51.3056 211.298 51.7685 209.792 51.7685Z" fill="#F8A65D"/>
<path d="M233 18.9444H242.137V51.3518H233V18.9444Z" fill="#44464A"/>
<path d="M271.112 52C268.497 52 265.959 51.6759 263.498 51.0278C261.037 50.3796 259.037 49.5154 257.499 48.4352L260.498 41.6759C261.944 42.6327 263.621 43.4043 265.529 43.9907C267.436 44.5772 269.313 44.8704 271.159 44.8704C274.666 44.8704 276.419 43.9907 276.419 42.2315C276.419 41.3056 275.912 40.6265 274.896 40.1944C273.912 39.7315 272.312 39.2531 270.097 38.7593C267.667 38.2346 265.636 37.679 264.006 37.0926C262.375 36.4753 260.975 35.5031 259.806 34.1759C258.637 32.8488 258.053 31.0586 258.053 28.8056C258.053 26.8302 258.591 25.0556 259.668 23.4815C260.745 21.8765 262.344 20.6111 264.467 19.6852C266.621 18.7593 269.251 18.2963 272.358 18.2963C274.481 18.2963 276.573 18.5432 278.634 19.037C280.696 19.5 282.511 20.1944 284.08 21.1204L281.265 27.9259C278.188 26.2593 275.204 25.4259 272.312 25.4259C270.497 25.4259 269.174 25.7037 268.344 26.2593C267.513 26.7839 267.098 27.4784 267.098 28.3426C267.098 29.2068 267.59 29.8549 268.574 30.287C269.559 30.7191 271.143 31.1667 273.327 31.6296C275.789 32.1543 277.819 32.7253 279.419 33.3426C281.049 33.929 282.449 34.8858 283.618 36.213C284.818 37.5093 285.418 39.2839 285.418 41.537C285.418 43.4815 284.88 45.2407 283.803 46.8148C282.726 48.3889 281.111 49.6543 278.957 50.6111C276.804 51.537 274.189 52 271.112 52Z" fill="#44464A"/>
<path d="M320.65 25.8426C323.726 25.8426 326.172 26.7685 327.987 28.6204C329.833 30.4722 330.756 33.2654 330.756 37V51.3518H321.988V38.4352C321.988 36.6759 321.65 35.3796 320.973 34.5463C320.327 33.713 319.404 33.2963 318.204 33.2963C316.881 33.2963 315.82 33.7593 315.02 34.6852C314.22 35.6111 313.82 37.0154 313.82 38.8981V51.3518H305.052V38.4352C305.052 35.0093 303.791 33.2963 301.268 33.2963C299.914 33.2963 298.838 33.7593 298.038 34.6852C297.238 35.6111 296.838 37.0154 296.838 38.8981V51.3518H288.07V26.2593H296.422V28.8981C297.345 27.8796 298.438 27.1235 299.699 26.6296C300.991 26.1049 302.391 25.8426 303.898 25.8426C305.652 25.8426 307.221 26.1667 308.605 26.8148C309.99 27.463 311.113 28.4506 311.974 29.7778C312.959 28.5123 314.205 27.5401 315.712 26.8611C317.22 26.1821 318.866 25.8426 320.65 25.8426Z" fill="#44464A"/>
<path d="M348.049 51.7685C345.373 51.7685 342.958 51.213 340.804 50.1019C338.651 48.9907 336.958 47.4475 335.728 45.4722C334.528 43.4969 333.928 41.2593 333.928 38.7593C333.928 36.2901 334.528 34.0679 335.728 32.0926C336.958 30.1173 338.635 28.5895 340.758 27.5093C342.911 26.3981 345.342 25.8426 348.049 25.8426C350.757 25.8426 353.187 26.3981 355.341 27.5093C357.494 28.5895 359.171 30.1173 360.371 32.0926C361.57 34.037 362.17 36.2593 362.17 38.7593C362.17 41.2593 361.57 43.4969 360.371 45.4722C359.171 47.4475 357.494 48.9907 355.341 50.1019C353.187 51.213 350.757 51.7685 348.049 51.7685ZM348.049 44.7778C349.587 44.7778 350.849 44.2531 351.833 43.2037C352.818 42.1235 353.31 40.642 353.31 38.7593C353.31 36.9074 352.818 35.4568 351.833 34.4074C350.849 33.358 349.587 32.8333 348.049 32.8333C346.511 32.8333 345.25 33.358 344.265 34.4074C343.281 35.4568 342.788 36.9074 342.788 38.7593C342.788 40.642 343.281 42.1235 344.265 43.2037C345.25 44.2531 346.511 44.7778 348.049 44.7778Z" fill="#44464A"/>
<path d="M376.431 42.5556L373.846 45.1944V51.3518H365.078V17H373.846V35.0093L382.799 26.2593H393.182L382.799 37L394.059 51.3518H383.445L376.431 42.5556Z" fill="#44464A"/>
<path d="M420 38.8519C420 38.9136 419.954 39.6389 419.862 41.0278H401.679C402.049 42.3241 402.756 43.3272 403.802 44.037C404.879 44.716 406.217 45.0556 407.817 45.0556C409.017 45.0556 410.048 44.8858 410.909 44.5463C411.801 44.2068 412.693 43.6512 413.586 42.8796L418.2 47.6944C415.77 50.4105 412.216 51.7685 407.54 51.7685C404.618 51.7685 402.049 51.213 399.834 50.1019C397.618 48.9907 395.896 47.4475 394.665 45.4722C393.465 43.4969 392.865 41.2593 392.865 38.7593C392.865 36.2901 393.45 34.0833 394.619 32.1389C395.819 30.1636 397.465 28.6204 399.557 27.5093C401.649 26.3981 404.002 25.8426 406.617 25.8426C409.109 25.8426 411.37 26.3673 413.401 27.4167C415.431 28.4352 417.031 29.9321 418.2 31.9074C419.4 33.8518 420 36.1667 420 38.8519ZM406.663 32.0926C405.31 32.0926 404.171 32.4784 403.248 33.25C402.356 34.0216 401.787 35.071 401.541 36.3981H411.786C411.54 35.071 410.955 34.0216 410.032 33.25C409.14 32.4784 408.017 32.0926 406.663 32.0926Z" fill="#44464A"/>
</svg>
