<svg width="68" height="65" viewBox="0 0 68 65" fill="none" xmlns="http://www.w3.org/2000/svg">
<path fill-rule="evenodd" clip-rule="evenodd" d="M39 5V18H23C19.6863 18 17 20.6863 17 24C17 27.3137 19.6863 30 23 30H18C14.134 30 11 33.134 11 37C11 40.866 14.134 44 18 44H13C8.58172 44 5 47.5817 5 52C5 56.4183 8.58172 60 13 60H55C59.4183 60 63 56.4183 63 52C63 47.5817 59.4183 44 55 44H50C53.866 44 57 40.866 57 37C57 33.134 53.866 30 50 30H39C45.6274 30 51 24.6274 51 18V17C51 10.3726 45.6274 5 39 5Z" fill="#F7F0DF"/>
<path fill-rule="evenodd" clip-rule="evenodd" d="M17.0888 25.0341C17.0304 24.6981 17 24.3526 17 24C17 20.6863 19.6863 18 23 18H39V5C40.7844 5 42.4779 5.38949 44 6.08808C48.1311 7.9841 51 12.157 51 17V18C51 20.6124 50.1652 23.0298 48.7479 25C46.5695 28.0281 43.015 30 39 30H50C50.3306 30 50.6558 30.0229 50.9742 30.0672C54.3791 30.5413 57 33.4646 57 37C57 37.7343 56.8869 38.4422 56.6773 39.1072C56.3423 40.1696 55.7609 41.1225 55 41.899C53.7295 43.1955 51.9587 44 50 44H55C56.4249 44 57.7628 44.3725 58.9216 45.0255C61.356 46.3972 63 49.0066 63 52C63 56.4183 59.4183 60 55 60H13C8.58172 60 5 56.4183 5 52C5 49.0066 6.64404 46.3972 9.07844 45.0255C10.2372 44.3725 11.5751 44 13 44H18C16.0413 44 14.2705 43.1955 13 41.899C12.2391 41.1225 11.6577 40.1696 11.3227 39.1072C11.1131 38.4422 11 37.7343 11 37C11 34.4196 12.3962 32.1653 14.4744 30.9514C15.5098 30.3466 16.7144 30 18 30H23C20.913 30 19.0749 28.9345 18 27.3178C17.5498 26.6407 17.2334 25.8668 17.0888 25.0341ZM12.2742 26.4515C12.0948 25.6632 12 24.8427 12 24C12 17.9249 16.9249 13 23 13H34V0H39C48.3888 0 56 7.61116 56 17V18C56 20.7853 55.3301 23.4142 54.1428 25.7343C58.7288 27.4213 62 31.8286 62 37C62 38.2888 61.7968 39.5301 61.4208 40.6937C65.3501 42.93 68 47.1555 68 52C68 59.1797 62.1797 65 55 65H13C5.8203 65 0 59.1797 0 52C0 47.1555 2.64987 42.93 6.57922 40.6937C6.20317 39.5301 6 38.2888 6 37C6 32.446 8.53672 28.4846 12.2742 26.4515Z" fill="#44464A"/>
<mask id="mask0" mask-type="alpha" maskUnits="userSpaceOnUse" x="5" y="5" width="58" height="55">
<path fill-rule="evenodd" clip-rule="evenodd" d="M39 5V18H23C19.6863 18 17 20.6863 17 24C17 27.3137 19.6863 30 23 30H18C14.134 30 11 33.134 11 37C11 40.866 14.134 44 18 44H13C8.58172 44 5 47.5817 5 52C5 56.4183 8.58172 60 13 60H55C59.4183 60 63 56.4183 63 52C63 47.5817 59.4183 44 55 44H50C53.866 44 57 40.866 57 37C57 33.134 53.866 30 50 30H39C45.6274 30 51 24.6274 51 18V17C51 10.3726 45.6274 5 39 5Z" fill="#F7F0DF"/>
</mask>
<g mask="url(#mask0)">
<rect x="5" y="44" width="37" height="16" fill="#F8A65D"/>
<rect x="37" y="7" width="15" height="11" fill="#777D89"/>
<rect x="37" y="2" width="15" height="10" fill="#FF5139"/>
<rect x="42" y="44" width="5" height="16" fill="#E5D98D"/>
</g>
<mask id="mask1" mask-type="alpha" maskUnits="userSpaceOnUse" x="5" y="5" width="58" height="55">
<path fill-rule="evenodd" clip-rule="evenodd" d="M39 5V18H23C19.6863 18 17 20.6863 17 24C17 27.3137 19.6863 30 23 30H18C14.134 30 11 33.134 11 37C11 40.866 14.134 44 18 44H13C8.58172 44 5 47.5817 5 52C5 56.4183 8.58172 60 13 60H55C59.4183 60 63 56.4183 63 52C63 47.5817 59.4183 44 55 44H50C53.866 44 57 40.866 57 37C57 33.134 53.866 30 50 30H39C45.6274 30 51 24.6274 51 18V17C51 10.3726 45.6274 5 39 5Z" fill="#F7F0DF"/>
</mask>
<g mask="url(#mask1)">
<rect opacity="0.1" x="5" y="52" width="58" height="8" fill="#44464A"/>
<rect opacity="0.1" x="5" y="37" width="58" height="7" fill="#44464A"/>
<rect opacity="0.1" x="5" y="24" width="58" height="6" fill="#44464A"/>
</g>
</svg>
